M48
; DRILL file {KiCad 7.0.1} date Tue Jun 20 23:21:37 2023
; FORMAT={-:-/ absolute / inch / decimal}
; #@! TF.CreationDate,2023-06-20T23:21:37+02:00
; #@! TF.GenerationSoftware,Kicad,Pcbnew,7.0.1
; #@! TF.FileFunction,Plated,1,2,PTH
FMAT,2
INCH
; #@! TA.AperFunction,Plated,PTH,ViaDrill
T1C0.0118
; #@! TA.AperFunction,Plated,PTH,ComponentDrill
T2C0.0118
; #@! TA.AperFunction,Plated,PTH,ViaDrill
T3C0.0157
; #@! TA.AperFunction,Plated,PTH,ComponentDrill
T4C0.0197
; #@! TA.AperFunction,Plated,PTH,ComponentDrill
T5C0.0236
; #@! TA.AperFunction,Plated,PTH,ComponentDrill
T6C0.0354
; #@! TA.AperFunction,Plated,PTH,ComponentDrill
T7C0.0433
%
G90
G05
T1
X0.0374Y1.5472
X0.0374Y1.2697
X0.0394Y2.4193
X0.0394Y1.8268
X0.0394Y1.0
X0.0394Y0.4429
X0.0394Y0.0394
X0.0413Y2.063
X0.0413Y0.7461
X0.0472Y1.8976
X0.0472Y0.2343
X0.0669Y2.1417
X0.1339Y1.9606
X0.1339Y1.8386
X0.1575Y2.1732
X0.1614Y2.0512
X0.1614Y0.6496
X0.1693Y2.4291
X0.2362Y0.9134
X0.2362Y0.8504
X0.2559Y0.4134
X0.2657Y0.0394
X0.2677Y1.0285
X0.3051Y2.4409
X0.3051Y1.1516
X0.311Y3.1378
X0.311Y2.7677
X0.311Y2.6299
X0.315Y3.8248
X0.315Y2.5039
X0.3169Y3.7165
X0.3169Y3.5433
X0.3169Y3.3543
X0.3346Y1.5276
X0.3346Y0.6299
X0.3504Y0.8465
X0.3976Y1.1535
X0.4148Y3.622
X0.4331Y2.2795
X0.4488Y0.8661
X0.4646Y3.6606
X0.4665Y3.8268
X0.4675Y1.0482
X0.4685Y3.4961
X0.4803Y0.0374
X0.4823Y3.4449
X0.4921Y0.6299
X0.4941Y3.6142
X0.4961Y0.9213
X0.5079Y0.9803
X0.5098Y0.3071
X0.5118Y1.2106
X0.5157Y3.6969
X0.5413Y1.0236
X0.5512Y2.5591
X0.5512Y0.7677
X0.561Y1.1024
X0.563Y3.6102
X0.5669Y0.9213
X0.5709Y3.1693
X0.5709Y1.7283
X0.5709Y0.1969
X0.5787Y0.8228
X0.5827Y2.6496
X0.5866Y1.4016
X0.5906Y2.2283
X0.6024Y2.9882
X0.6142Y2.8819
X0.6142Y0.126
X0.6181Y0.2795
X0.6634Y3.8268
X0.6693Y3.6516
X0.6693Y0.7008
X0.687Y2.752
X0.6988Y0.7677
X0.7047Y3.498
X0.7047Y0.4291
X0.7244Y2.5217
X0.7283Y0.0394
X0.7618Y0.7008
X0.7648Y3.5433
X0.7717Y2.3543
X0.7874Y0.122
X0.7933Y2.0531
X0.7933Y1.811
X0.7972Y1.5709
X0.7992Y1.0394
X0.8031Y1.2933
X0.8051Y2.2441
X0.8098Y0.6024
X0.8268Y3.5039
X0.8346Y3.6457
X0.8465Y3.563
X0.8583Y0.7008
X0.874Y3.5315
X0.876Y3.4744
X0.8858Y3.0197
X0.8898Y3.6417
X0.8898Y2.9606
X0.9055Y0.5984
X0.9252Y3.3071
X0.9291Y3.8268
X0.9409Y0.1181
X0.9429Y2.689
X0.9449Y2.8858
X0.9606Y0.2717
X0.9793Y0.1978
X0.9823Y0.0413
X0.9902Y2.9882
X1.0039Y2.2441
X1.0118Y0.5984
X1.0197Y3.7717
X1.0217Y2.9331
X1.0287Y3.1197
X1.0319Y1.1772
X1.0394Y0.9567
X1.0728Y3.2756
X1.0866Y0.5886
X1.0906Y2.6811
X1.0945Y3.3543
X1.0984Y1.2165
X1.1024Y1.3071
X1.1102Y2.3622
X1.1122Y2.9882
X1.1122Y1.8996
X1.1339Y0.252
X1.1358Y3.439
X1.1693Y1.122
X1.1791Y3.6457
X1.1811Y1.2992
X1.189Y3.1693
X1.2008Y1.6339
X1.2047Y1.1693
X1.2126Y0.9843
X1.2126Y0.5315
X1.2402Y1.126
X1.2441Y1.7746
X1.2441Y0.0433
X1.2638Y2.7874
X1.2776Y3.8248
X1.2874Y3.5354
X1.2913Y2.3622
X1.2913Y1.1417
X1.2992Y1.3455
X1.3327Y2.7835
X1.3327Y1.0575
X1.3622Y3.4094
X1.3622Y0.9409
X1.4173Y0.374
X1.4567Y2.6378
X1.4567Y2.3622
X1.5315Y3.8209
X1.5315Y3.2874
X1.5354Y3.437
X1.5354Y0.2835
X1.5354Y0.0394
X1.5374Y3.6437
X1.5374Y2.9213
X1.5374Y2.7717
X1.5374Y1.5413
X1.5394Y2.6476
X1.5394Y2.3622
X1.5394Y1.3642
X1.5394Y0.4862
X1.5413Y1.9154
X1.5413Y1.7264
X1.5413Y0.7362
X1.5433Y2.1654
X1.5433Y1.1634
X1.5433Y0.9488
T2
X0.5636Y3.3937
X0.5636Y3.3386
X0.5911Y3.4213
X0.5911Y3.3652
X0.5911Y3.311
X0.6187Y3.3937
X0.6187Y3.3386
X0.6463Y3.4213
X0.6463Y3.3652
X0.6463Y3.311
X0.6738Y3.3937
X0.6738Y3.3386
T3
X0.7323Y0.8917
X0.9724Y0.8937
X1.1339Y0.7126
X1.185Y0.7126
T4
X0.6594Y0.2264
X0.6594Y0.1693
X0.6969Y0.2264
X0.6969Y0.1693
X0.7343Y0.1693
X0.7697Y0.2264
X0.7697Y0.1693
X0.8051Y0.2264
X0.8051Y0.1693
X0.8406Y0.2264
X0.878Y0.2264
X0.878Y0.1693
X0.9154Y0.2264
X0.9154Y0.1693
T5
X1.0992Y2.1654
X1.0992Y2.1197
X1.1492Y2.1654
X1.1492Y2.1197
X1.1992Y2.1654
X1.1992Y2.1197
X1.2492Y2.1654
X1.2492Y2.1197
X1.2992Y2.1654
X1.2992Y2.1197
T6
X1.3016Y3.6063
X1.4016Y3.6063
T7
X1.1929Y3.0866
X1.1929Y2.9866
X1.1929Y2.8866
X1.1929Y2.7866
X1.1929Y2.6866
X1.1929Y2.5866
X1.1929Y2.4866
T5
G00X0.7283Y0.2738
M15
G01X0.689Y0.2738
M16
G05
G00X0.7283Y0.1219
M15
G01X0.689Y0.1219
M16
G05
G00X0.8858Y0.2738
M15
G01X0.8465Y0.2738
M16
G05
G00X0.8858Y0.1219
M15
G01X0.8465Y0.1219
M16
G05
T0
M30
